# xmcd
#
# Track frame offsets:
#	182
#	12227
#	24287
#	35572
#	46050
#	57490
#	67912
#	80125
#	92350
#	104520
#	114030
#	125000
#	137132
#	148885
#	160607
#	171930
#	184465
#	196520
#	209595
#	221117
#	232225
#	244722
#	256670
#	266952
#	276652
#	286757
#	299102
#
# Disc length: 4132 seconds
#
# Revision: 0
# Processed by: cddbd v1.5.1PL0 Copyright (c) Steve Scherf et al.
# Submitted via: audiograbber 1.83.01
#
DISCID=a210221b
DTITLE=Tommy Edwards - It's All In The Game
DYEAR=1993
DGENRE=
TTITLE0=It's All In The Game
TTITLE1=Morning Side Of The Mountain
TTITLE2=Don't Fence Me
TTITLE3=I Really Don't Want To Known
TTITLE4=Blue Heartaches
TTITLE5=Unloved
TTITLE6=Love Is All We Need
TTITLE7=My Melancholy Baby
TTITLE8=Lonely Lula Hands
TTITLE9=Over The Rainbow
TTITLE10=Stardust
TTITLE11=Ways Of Love
TTITLE12=I've Been There
TTITLE13=Please Love Me Forever
TTITLE14=The Tables Are Turning
TTITLE15=Vaya Con Dios
TTITLE16=The Golden Chain
TTITLE17=Honestly And Truly
TTITLE18=It's Not The End
TTITLE19=It's Only The Good Times
TTITLE20=Paradise
TTITLE21=New In The Ways Of Love
TTITLE22=Before You
TTITLE23=These Are The Times
TTITLE24=A Fool Such As I
TTITLE25=Music Maestro Please
TTITLE26=Take These Chains From My Heart
EXTD=
EXTT0=
EXTT1=
EXTT2=
EXTT3=
EXTT4=
EXTT5=
EXTT6=
EXTT7=
EXTT8=
EXTT9=
EXTT10=
EXTT11=
EXTT12=
EXTT13=
EXTT14=
EXTT15=
EXTT16=
EXTT17=
EXTT18=
EXTT19=
EXTT20=
EXTT21=
EXTT22=
EXTT23=
EXTT24=
EXTT25=
EXTT26=
PLAYORDER=
